<svg width="340" height="335" viewBox="0 0 340 335" fill="none" xmlns="http://www.w3.org/2000/svg">
<path fill-rule="evenodd" clip-rule="evenodd" d="M160.354 3.57602C166.616 -0.110307 174.384 -0.1103 180.646 3.57603L323.322 87.5682C325.801 89.0273 327.783 90.8165 329.303 92.8135C335.663 96.1616 340 102.836 340 110.523V315C340 326.046 331.046 335 320 335H20C8.9543 335 0 326.046 0 315V110.523C0 102.205 5.07795 95.0725 12.303 92.0573C13.7321 90.364 15.5163 88.8405 17.6776 87.5682L160.354 3.57602ZM264.199 205.853C239.544 223.872 163.698 252.73 74.5278 204.415C64.8161 199.153 52.6774 202.76 47.4153 212.472C42.1533 222.184 45.7604 234.322 55.4722 239.585C160.172 296.313 252.569 263.896 287.801 238.147C296.719 231.63 298.665 219.117 292.147 210.199C285.63 201.281 273.117 199.335 264.199 205.853Z" fill="#B37FDC"/>
</svg>
